<svg xmlns="http://www.w3.org/2000/svg" viewBox="0 0 640 400" role="img" aria-labelledby="title description">
  <title id="title">木桌上的白色陶瓷花瓶</title>
  <desc id="description">暖色窗光照进室内，一只插着绿色枝叶的白色陶瓷花瓶放在深色木桌上</desc>
  <defs>
    <linearGradient id="room" x1="0" y1="0" x2="1" y2="1">
      <stop offset="0" stop-color="#d8c9b7" />
      <stop offset="1" stop-color="#8c7362" />
    </linearGradient>
    <linearGradient id="light" x1="0" y1="0" x2="1" y2="1">
      <stop offset="0" stop-color="#fff7da" stop-opacity=".92" />
      <stop offset="1" stop-color="#fff7da" stop-opacity="0" />
    </linearGradient>
    <linearGradient id="vase" x1="0" y1="0" x2="1" y2="1">
      <stop offset="0" stop-color="#fffef9" />
      <stop offset=".62" stop-color="#e8e4dc" />
      <stop offset="1" stop-color="#beb9af" />
    </linearGradient>
    <filter id="shadow" x="-30%" y="-30%" width="160%" height="180%">
      <feDropShadow dx="0" dy="12" stdDeviation="10" flood-color="#231b17" flood-opacity=".3" />
    </filter>
  </defs>
  <rect width="640" height="400" fill="url(#room)" />
  <rect x="54" y="28" width="222" height="212" rx="4" fill="#5a463c" />
  <rect x="68" y="42" width="194" height="184" fill="#e9d9b8" />
  <path d="M165 42v184M68 134h194" stroke="#6c5546" stroke-width="9" />
  <path d="M74 48 350 300H74Z" fill="url(#light)" />
  <path d="M0 282h640v118H0Z" fill="#4f3023" />
  <path d="M0 306h640M0 360h640" stroke="#7d513b" stroke-width="4" opacity=".58" />
  <ellipse cx="414" cy="339" rx="126" ry="28" fill="#231914" opacity=".32" />
  <g fill="none" stroke="#426347" stroke-linecap="round">
    <path d="M410 191c-5-61-27-102-67-134M421 197c15-57 47-96 92-119M403 194c-32-48-68-71-111-73M428 193c39-32 77-43 116-32" stroke-width="7" />
    <path d="M345 61c-20-1-34 8-44 27 23 4 39-3 48-22M507 82c-1-21 9-36 30-45 3 25-5 41-25 49M295 121c-16-12-33-14-53-4 16 18 34 23 55 10M539 162c15-15 33-19 54-12-13 21-30 28-52 19" fill="#5f8463" stroke-width="4" />
  </g>
  <g filter="url(#shadow)">
    <path d="M372 183h88c-10 28-7 43 12 61 23 22 31 54 18 87-9 24-34 37-74 37s-65-13-74-37c-13-33-5-65 18-87 19-18 22-33 12-61Z" fill="url(#vase)" />
    <ellipse cx="416" cy="184" rx="44" ry="12" fill="#d8d3ca" />
    <ellipse cx="416" cy="184" rx="34" ry="7" fill="#817c73" />
    <path d="M365 277c25 17 77 17 102 0" fill="none" stroke="#9aa9a2" stroke-width="5" opacity=".7" />
  </g>
  <rect x="84" y="255" width="120" height="28" rx="5" fill="#c6a56b" />
  <rect x="95" y="237" width="126" height="22" rx="5" fill="#dfc99c" />
</svg>
